{"title":"Syrup 2013 720p WEBRIP Xvid AC3-FooKaS","uid":8444266,"size":2603831181,"categoryP":"video","categoryS":"hd___movies","magnet":"?xt=urn:btih:d8ff51c97957e9d5e24bc7d3ff831102cd494531&amp;dn=Syrup+2013+720p+WEBRIP+Xvid+AC3-FooKaS&amp;tr=udp%3A%2F%2Ftracker.openbittorrent.com%3A80&amp;tr=udp%3A%2F%2Fopen.demonii.com%3A1337&amp;tr=udp%3A%2F%2Ftracker.coppersurfer.tk%3A6969&amp;tr=udp%3A%2F%2Fexodus.desync.com%3A6969","seeders":0,"leechers":0,"uploader":"Gh0stNet","files":2,"time":1367849976,"description":"Source: Syrup.2013.720p.WEB-DL.H264-CtrlHD\n\nFormat: AVI\nFormat/Info: Audio Video Interleave\nFormat profile: OpenDML\nFile size: 2.43 GiB\nDuration: 1h 29mn\nOverall bit rate: 3 859 Kbps\nWriting application: Lavf51.12.1\n\nVideo\nID: 0\nFormat: AVC\nFormat/Info: Advanced Video Codec\nFormat profile: &lt;a class=&quot;__cf_email__&quot; href=&quot;/cdn-cgi/l/email-protection&quot; data-cfemail=&quot;d597b4a6b0b9bcbbb09599e6fbe4&quot;&gt;[email&amp;#160;protected]&lt;/a&gt;&lt;script data-cfhash='f9e31' type=&quot;text/javascript&quot;&gt;\n/* &lt;![CDATA[ */!function(){try{var t=&quot;currentScript&quot;in document?document.currentScript:function(){for(var t=document.getElementsByTagName(&quot;script&quot;),e=t.length;e--;)if(t[e].getAttribute(&quot;data-cfhash&quot;))return t[e]}();if(t&amp;&amp;t.previousSibling){var e,r,n,i,c=t.previousSibling,a=c.getAttribute(&quot;data-cfemail&quot;);if(a){for(e=&quot;&quot;,r=parseInt(a.substr(0,2),16),n=2;a.length-n;n+=2)i=parseInt(a.substr(n,2),16)^r,e+=String.fromCharCode(i);e=document.createTextNode(e),c.parentNode.replaceChild(e,c)}t.parentNode.removeChild(t);}}catch(u){}}()/* ]]&gt; */&lt;/script&gt;\nFormat settings, CABAC: No\nFormat settings, ReFrames: 1 frame\nFormat settings, GOP: M=1, N=12\nCodec ID: H264\nDuration: 1h 29mn\nBit rate: 3 465 Kbps\nWidth: 1 280 pixels\nHeight: 540 pixels\nDisplay aspect ratio: 2.40:1\nFrame rate mode: Variable\nFrame rate: 23.976 fps\nColor space: YUV\nChroma subsampling: 4:2:0\nBit depth: 8 bits\nScan type: Progressive\nBits/(Pixel*Frame): 0.209\nStream size: 2.18 GiB (90%)\n\nAudio\nID: 1\nFormat: AC-3\nFormat/Info: Audio Coding 3\nMode extension: CM (complete main)\nFormat settings, Endianness: Big\nCodec ID: 2000\nDuration: 1h 29mn\nBit rate mode: Constant\nBit rate: 384 Kbps\nChannel(s): 6 channels\nChannel positions: Front: L C R, Side: L R, LFE\nSampling rate: 48.0 KHz\nBit depth: 16 bits\nCompression mode: Lossy\nStream size: 247 MiB (10%)\nAlignment: Aligned on interleaves\nInterleave, duration: 32 ms (0.77 video frame)\nInterleave, preload duration: 32 ms\n\nScreens:\n &lt;a href=&quot;\nhttp://i.imgur.com/5JFY8ZX.jpg&quot; rel=&quot;nofollow&quot; target=&quot;_NEW&quot;&gt;\nhttp://i.imgur.com/5JFY8ZX.jpg&lt;/a&gt; &lt;a href=&quot;\nhttp://i.imgur.com/dKIt08f.jpg&quot; rel=&quot;nofollow&quot; target=&quot;_NEW&quot;&gt;\nhttp://i.imgur.com/dKIt08f.jpg&lt;/a&gt; &lt;a href=&quot;\nhttp://i.imgur.com/nlizi7D.jpg&quot; rel=&quot;nofollow&quot; target=&quot;_NEW&quot;&gt;\nhttp://i.imgur.com/nlizi7D.jpg&lt;/a&gt;","torrent":{"xt":"urn:btih:d8ff51c97957e9d5e24bc7d3ff831102cd494531","amp;dn":"Syrup+2013+720p+WEBRIP+Xvid+AC3-FooKaS","amp;tr":["udp%3A%2F%2Ftracker.openbittorrent.com%3A80","udp%3A%2F%2Fopen.demonii.com%3A1337","udp%3A%2F%2Ftracker.coppersurfer.tk%3A6969","udp%3A%2F%2Fexodus.desync.com%3A6969"],"infoHash":"d8ff51c97957e9d5e24bc7d3ff831102cd494531","infoHashBuffer":{"type":"Buffer","data":[216,255,81,201,121,87,233,213,226,75,199,211,255,131,17,2,205,73,69,49]},"announce":[],"urlList":[]}}